<?xml version="1.0" encoding="iso-8859-1"?>
<!-- Generator: Adobe Illustrator 19.0.0, SVG Export Plug-In . SVG Version: 6.00 Build 0)  -->
<svg version="1.1" id="Layer_1" xmlns="http://www.w3.org/2000/svg" xmlns:xlink="http://www.w3.org/1999/xlink" x="0px" y="0px"
	 viewBox="0 0 416 416" style="enable-background:new 0 0 416 416;" xml:space="preserve">
<g>
	<rect x="8" y="8" style="fill:#ECF0F1;" width="400" height="400"/>
	<path style="fill:#D1D5D8;" d="M48,48v155.446l6.775,1.049c9.09,1.408,14.577,5.524,19.91,9.524
		c6.55,4.907,13.323,9.98,26.645,9.98s20.095-5.074,26.678-10.006c2.319-1.744,4.948-3.72,7.866-5.362l3.317-1.867l0.644-3.751
		C145.606,169.398,174.61,145,208.8,145c34.694,0,63.77,24.801,69.137,58.971l0.571,3.636l3.133,1.932
		c2.272,1.401,4.335,2.953,6.345,4.465c6.559,4.914,13.341,9.996,26.673,9.996c13.322,0,20.096-5.074,26.671-10
		c5.307-3.98,10.794-8.096,19.893-9.504l6.776-1.049V48H48z"/>
	<path style="fill:#F8A805;" d="M275.628,194.021C266.497,164.7,239.64,145,208.8,145c-30.695,0-57.519,19.61-66.748,48.798
		l-2.861,12.967l11.183-2.585c1.371-0.119,2.813-0.18,4.286-0.18c13.343,0,20.117,5.083,26.695,10.019
		c6.55,4.907,13.323,9.981,26.635,9.981c13.323,0,20.097-5.075,26.671-10.001c6.552-4.916,13.326-9.999,26.659-9.999
		c2.009,0,3.865,0.11,5.673,0.337l11.515,3.27L275.628,194.021z"/>
	<path style="fill:#3E81C8;" d="M358.124,205.103c-7.268,1.753-12.111,5.385-16.796,8.898c-6.551,4.916-13.325,9.999-26.668,9.999
		c-13.333,0-20.112-5.079-26.709-10.022c-2.928-2.198-5.956-4.472-9.516-6.239c-5.088-2.55-10.526-3.738-17.115-3.738
		c-13.312,0-20.085,5.074-26.662,10.001c-6.551,4.916-13.325,9.999-26.668,9.999c-13.333,0-20.107-5.083-26.685-10.019
		c-6.55-4.907-13.323-9.981-26.646-9.981c-5.203,0-9.623,0.725-13.756,2.27l-1.65,0.662c-4.348,1.889-7.84,4.508-11.254,7.069
		c-6.552,4.916-13.327,9.999-26.669,9.999c-13.343,0-20.117-5.083-26.67-10c-4.682-3.512-9.523-7.143-16.781-8.896L48,202.717v45.73
		l6.776,1.048c9.075,1.404,14.575,5.522,19.9,9.509c6.548,4.914,13.32,9.995,26.653,9.995s20.105-5.082,26.661-10.001
		c6.552-4.916,13.326-9.999,26.668-9.999c13.343,0,20.117,5.083,26.668,9.999c6.555,4.918,13.33,10.002,26.664,10.002
		c13.323,0,20.097-5.075,26.671-10.001c6.552-4.916,13.326-9.999,26.659-9.999c13.342,0,20.117,5.083,26.694,10.019
		c6.55,4.907,13.323,9.981,26.645,9.981s20.096-5.074,26.671-10c5.307-3.98,10.794-8.096,19.893-9.504l6.776-1.049v-45.726
		L358.124,205.103z"/>
	<path style="fill:#3E81C8;" d="M358.124,250.103c-7.268,1.753-12.111,5.385-16.796,8.898c-6.551,4.916-13.325,9.999-26.668,9.999
		c-13.342,0-20.117-5.083-26.694-10.018c-6.55-4.907-13.323-9.982-26.646-9.982c-13.312,0-20.085,5.074-26.662,10.001
		c-6.551,4.916-13.325,9.999-26.668,9.999c-13.333,0-20.107-5.083-26.685-10.019c-6.55-4.907-13.323-9.981-26.646-9.981
		c-13.322,0-20.094,5.074-26.671,10.001c-6.552,4.916-13.326,9.999-26.659,9.999c-13.353,0-20.114-5.082-26.667-10.005
		c-4.692-3.511-9.543-7.142-16.784-8.891L48,247.717v45.73l6.776,1.048c9.075,1.404,14.575,5.522,19.9,9.509
		c6.548,4.914,13.32,9.995,26.653,9.995s20.105-5.082,26.661-10.001c6.552-4.916,13.326-9.999,26.668-9.999
		c13.343,0,20.117,5.083,26.668,9.999c6.555,4.918,13.33,10.002,26.664,10.002c13.323,0,20.097-5.075,26.671-10.001
		c6.552-4.916,13.326-9.999,26.659-9.999c13.342,0,20.117,5.083,26.694,10.019c6.55,4.907,13.323,9.981,26.645,9.981
		s20.096-5.074,26.671-10c5.307-3.98,10.794-8.096,19.893-9.504l6.776-1.049v-45.726L358.124,250.103z"/>
	<path style="fill:#3E81C8;" d="M358.124,295.103c-7.268,1.753-12.111,5.385-16.796,8.898c-6.551,4.916-13.325,9.999-26.668,9.999
		c-13.342,0-20.117-5.083-26.694-10.018c-6.55-4.907-13.323-9.982-26.646-9.982c-13.312,0-20.085,5.074-26.662,10.001
		c-6.551,4.916-13.325,9.999-26.668,9.999c-13.333,0-20.107-5.083-26.685-10.019c-6.55-4.907-13.323-9.981-26.646-9.981
		c-13.322,0-20.094,5.074-26.671,10.001c-6.552,4.916-13.326,9.999-26.659,9.999c-13.353,0-20.114-5.082-26.667-10.005
		c-4.692-3.511-9.543-7.142-16.784-8.891L48,292.717V349h320v-56.279L358.124,295.103z"/>
	<g>
		<path d="M408,0H8C3.58,0,0,3.58,0,8v400c0,4.42,3.58,8,8,8h400c4.42,0,8-3.58,8-8V8C416,3.58,412.42,0,408,0z M400,400H16V16h384
			V400z"/>
		<path d="M368,40H48c-4.42,0-8,3.58-8,8v301c0,4.42,3.58,8,8,8h320c4.42,0,8-3.58,8-8V48C376,43.58,372.42,40,368,40z M360,341H56
			v-38.12c5.63,1.36,9.42,4.19,13.87,7.52c6.88,5.17,15.46,11.6,31.46,11.6s24.57-6.43,31.46-11.6c6.26-4.69,11.2-8.4,21.87-8.4
			s15.61,3.71,21.87,8.4c6.89,5.17,15.46,11.6,31.46,11.6s24.58-6.43,31.47-11.6c6.26-4.69,11.2-8.4,21.86-8.4
			c10.67,0,15.61,3.71,21.87,8.4c6.89,5.17,15.47,11.6,31.47,11.6s24.58-6.43,31.47-11.6c4.44-3.33,8.23-6.16,13.87-7.52V341z
			 M360,286.59c-11.05,1.71-17.83,6.78-23.47,11.01c-6.26,4.69-11.2,8.4-21.87,8.4c-10.67,0-15.61-3.71-21.87-8.4
			c-6.89-5.17-15.47-11.6-31.47-11.6s-24.57,6.43-31.46,11.6c-6.26,4.69-11.2,8.4-21.87,8.4c-10.66,0-15.61-3.71-21.86-8.4
			c-6.89-5.17-15.47-11.6-31.47-11.6s-24.58,6.43-31.47,11.6c-6.25,4.69-11.19,8.4-21.86,8.4s-15.61-3.71-21.86-8.4
			c-5.65-4.23-12.42-9.3-23.47-11.01v-28.71c5.63,1.36,9.42,4.19,13.87,7.52c6.88,5.17,15.46,11.6,31.46,11.6s24.57-6.43,31.46-11.6
			c6.26-4.69,11.2-8.4,21.87-8.4s15.61,3.71,21.87,8.4c6.89,5.17,15.46,11.6,31.46,11.6s24.58-6.43,31.47-11.6
			c6.26-4.69,11.2-8.4,21.86-8.4c10.67,0,15.61,3.71,21.87,8.4c6.89,5.17,15.47,11.6,31.47,11.6s24.58-6.43,31.47-11.6
			c4.44-3.33,8.23-6.16,13.87-7.52V286.59z M360,241.59c-11.05,1.71-17.83,6.78-23.47,11.01c-6.26,4.69-11.2,8.4-21.87,8.4
			c-10.67,0-15.61-3.71-21.87-8.4c-6.89-5.17-15.47-11.6-31.47-11.6s-24.57,6.43-31.46,11.6c-6.26,4.69-11.2,8.4-21.87,8.4
			c-10.66,0-15.61-3.71-21.86-8.4c-6.89-5.17-15.47-11.6-31.47-11.6s-24.58,6.43-31.47,11.6c-6.25,4.69-11.19,8.4-21.86,8.4
			s-15.61-3.71-21.86-8.4c-5.65-4.23-12.42-9.3-23.47-11.01v-28.71c5.63,1.36,9.42,4.19,13.86,7.52c6.89,5.17,15.47,11.6,31.47,11.6
			s24.58-6.43,31.47-11.6c3.16-2.37,6.14-4.61,9.64-6.13c0.01,0,0.01,0,0.01,0c3.57-1.55,7.45-2.27,12.21-2.27
			c10.67,0,15.61,3.71,21.87,8.4c6.89,5.17,15.46,11.6,31.46,11.6s24.58-6.43,31.47-11.6c6.26-4.69,11.2-8.4,21.86-8.4
			c5.3,0,9.6,0.92,13.53,2.89c2.94,1.46,5.56,3.43,8.33,5.51c6.9,5.17,15.47,11.6,31.48,11.6c16,0,24.58-6.43,31.47-11.6
			c4.44-3.33,8.23-6.16,13.87-7.52V241.59z M149.68,196.21c8-25.3,31.64-43.21,59.12-43.21c27.66,0,51.27,17.97,59.19,43.4
			c-2.15-0.27-4.36-0.4-6.67-0.4c-16,0-24.57,6.43-31.46,11.6c-6.26,4.69-11.2,8.4-21.87,8.4c-10.66,0-15.6-3.71-21.86-8.4
			c-6.89-5.17-15.47-11.6-31.47-11.6C152.95,196,151.29,196.07,149.68,196.21z M360,196.59c-11.05,1.71-17.83,6.78-23.47,11.01
			c-6.26,4.69-11.2,8.4-21.87,8.4c-10.67,0-15.62-3.71-21.88-8.4c-2.18-1.64-4.41-3.31-6.94-4.87C279.91,164.97,247.5,137,208.8,137
			c-38.18,0-70.47,27.5-76.85,64.66c-3.34,1.88-6.17,4-8.75,5.94c-6.26,4.69-11.2,8.4-21.87,8.4s-15.61-3.71-21.87-8.4
			c-5.64-4.23-12.42-9.3-23.46-11.01V56h304V196.59z"/>
		<path d="M216,79.2v40c0,4.42-3.58,8-8,8s-8-3.58-8-8v-40c0-4.42,3.58-8,8-8S216,74.78,216,79.2z"/>
		<path d="M282.93,101.42l-20,34.64c-1.48,2.57-4.17,4-6.94,4c-1.36,0-2.73-0.34-3.99-1.07c-3.83-2.21-5.14-7.1-2.93-10.93l20-34.64
			c2.21-3.83,7.1-5.14,10.93-2.93S285.14,97.59,282.93,101.42z"/>
		<path d="M131.79,171.2c-1.48,2.57-4.17,4-6.94,4c-1.35,0-2.73-0.34-3.99-1.07l-34.64-20c-3.83-2.21-5.14-7.1-2.93-10.93
			s7.1-5.14,10.93-2.93l34.64,20C132.69,162.48,134,167.37,131.79,171.2z"/>
		<path d="M329.78,154.13l-34.64,20c-1.26,0.73-2.64,1.07-3.99,1.07c-2.77,0-5.46-1.43-6.94-4c-2.21-3.83-0.9-8.72,2.93-10.93
			l34.64-20c3.83-2.21,8.72-0.89,10.93,2.93C334.92,147.03,333.61,151.92,329.78,154.13z"/>
		<path d="M164,138.99c-1.26,0.73-2.64,1.07-3.99,1.07c-2.77,0-5.46-1.43-6.94-4l-20-34.64c-2.21-3.83-0.9-8.72,2.93-10.93
			c3.83-2.21,8.72-0.89,10.93,2.93l20,34.64C169.14,131.89,167.83,136.78,164,138.99z"/>
	</g>
</g>
<g>
</g>
<g>
</g>
<g>
</g>
<g>
</g>
<g>
</g>
<g>
</g>
<g>
</g>
<g>
</g>
<g>
</g>
<g>
</g>
<g>
</g>
<g>
</g>
<g>
</g>
<g>
</g>
<g>
</g>
</svg>
