<?xml version="1.0" encoding="iso-8859-1"?>
<!-- Generator: Adobe Illustrator 19.0.0, SVG Export Plug-In . SVG Version: 6.00 Build 0)  -->
<svg version="1.1" id="Layer_1" xmlns="http://www.w3.org/2000/svg" xmlns:xlink="http://www.w3.org/1999/xlink" x="0px" y="0px"
	 viewBox="0 0 512 512" style="enable-background:new 0 0 512 512;" xml:space="preserve">
<polyline style="fill:#A2D8F5;" points="503.652,189.568 503.652,431.814 8.348,431.814 8.348,80.186 503.652,80.186 
	503.652,153.82 "/>
<polyline style="fill:#7FC7EF;" points="503.652,189.568 503.652,431.814 256,431.814 256,80.186 503.652,80.186 503.652,153.82 "/>
<g>
	<rect x="94.486" y="111.816" style="fill:#FFA81E;" width="47.426" height="42.005"/>
	<rect x="141.913" y="111.816" style="fill:#FFA81E;" width="47.426" height="42.005"/>
	<rect x="322.66" y="111.816" style="fill:#FFA81E;" width="47.426" height="42.005"/>
	<rect x="370.087" y="111.816" style="fill:#FFA81E;" width="47.426" height="42.005"/>
</g>
<rect x="287.265" y="236.833" style="fill:#FFFFFF;" width="158.052" height="142.826"/>
<rect x="363.921" y="236.833" style="fill:#F5F5F5;" width="81.397" height="142.826"/>
<rect x="67.172" y="236.833" style="fill:#FFFFFF;" width="158.052" height="142.826"/>
<rect x="143.839" y="236.833" style="fill:#F5F5F5;" width="81.397" height="142.826"/>
<g>
	<path style="fill:#423F40;" d="M503.652,71.838H8.348C3.738,71.838,0,75.576,0,80.186v351.628c0,4.61,3.738,8.348,8.348,8.348
		h495.304c4.61,0,8.348-3.738,8.348-8.348V80.186C512,75.576,508.262,71.838,503.652,71.838z M495.304,181.22H449.67
		c-4.61,0-8.348,3.738-8.348,8.348s3.738,8.348,8.348,8.348h45.635v225.55H16.696v-225.55h377.104c4.61,0,8.348-3.738,8.348-8.348
		s-3.738-8.348-8.348-8.348H16.696V88.534h478.609V181.22z"/>
	<path style="fill:#423F40;" d="M94.487,162.168h47.426h47.425c4.61,0,8.348-3.738,8.348-8.348v-42.005
		c0-4.61-3.738-8.348-8.348-8.348h-47.425H94.487c-4.61,0-8.348,3.738-8.348,8.348v42.005
		C86.14,158.431,89.877,162.168,94.487,162.168z M180.99,145.473h-30.729v-25.309h30.729V145.473z M102.835,120.162h30.73v25.309
		h-30.73V120.162z"/>
	<path style="fill:#423F40;" d="M322.661,162.168h47.426h47.425c4.61,0,8.348-3.738,8.348-8.348v-42.005
		c0-4.61-3.738-8.348-8.348-8.348h-47.425h-47.426c-4.61,0-8.348,3.738-8.348,8.348v42.005
		C314.313,158.431,318.051,162.168,322.661,162.168z M409.164,145.473h-30.729v-25.309h30.729V145.473z M331.009,120.162h30.73
		v25.309h-30.73V120.162z"/>
	<path style="fill:#423F40;" d="M278.424,236.828v82.424c0,4.61,3.738,8.348,8.348,8.348s8.348-3.738,8.348-8.348v-74.076h141.357
		v126.132H295.12v-16.44c0-4.61-3.738-8.348-8.348-8.348s-8.348,3.738-8.348,8.348v24.787c0,4.61,3.738,8.348,8.348,8.348h158.052
		c4.61,0,8.348-3.738,8.348-8.348V236.828c0-4.61-3.738-8.348-8.348-8.348H286.772C282.162,228.48,278.424,232.218,278.424,236.828z
		"/>
	<path style="fill:#423F40;" d="M339.116,332.386c-4.714,0-8.726-2.002-8.726-5.809c0-4.607-3.811-5.709-8.124-5.709
		c-5.015,0-7.323,1.503-7.323,6.31c0,8.312,6.721,18.829,23.672,18.829c14.444,0,25.578-6.41,25.578-23.637V295.83
		c0-17.227-10.833-23.637-24.675-23.637c-13.842,0-24.575,6.41-24.575,23.637v0.902c0,16.025,9.629,21.032,21.064,21.032
		c4.815,0,9.328-0.902,12.538-4.407v9.013C348.545,329.282,345.035,332.386,339.116,332.386z M339.617,305.746
		c-5.718,0-9.028-2.805-9.028-10.115v-0.902c0-6.911,3.31-9.915,8.928-9.915s9.028,3.004,9.028,9.915v1.803
		C348.545,303.142,345.035,305.746,339.617,305.746z"/>
	<path style="fill:#423F40;" d="M370.412,330.884v9.715c0,2.905,4.011,4.807,6.821,4.807h35.709c2.508,0,4.715-3.305,4.715-6.91
		c0-3.606-2.206-6.711-4.715-6.711h-26.28v-0.902c0-9.114,30.995-16.225,30.995-37.958c0-13.421-11.736-20.732-23.372-20.732
		c-11.434,0-22.669,7.011-22.669,19.229c0,6.31,3.01,8.113,7.021,8.113c5.116,0,8.225-2.805,8.225-5.709
		c0-5.508,3.511-7.512,7.523-7.512c5.618,0,7.623,3.906,7.623,7.111C402.008,306.147,370.412,315.16,370.412,330.884z"/>
	<path style="fill:#423F40;" d="M225.228,228.48H67.176c-4.61,0-8.348,3.738-8.348,8.348v142.828c0,4.61,3.738,8.348,8.348,8.348
		h158.052c4.61,0,8.348-3.738,8.348-8.348v-24.787c0-4.61-3.738-8.348-8.348-8.348c-4.61,0-8.348,3.738-8.348,8.348v16.44H75.523
		V245.176H216.88v74.076c0,4.61,3.738,8.348,8.348,8.348c4.61,0,8.348-3.738,8.348-8.348v-82.424
		C233.576,232.218,229.838,228.48,225.228,228.48z"/>
	<path style="fill:#423F40;" d="M141.587,292.926c0-13.421-11.736-20.732-23.372-20.732c-11.434,0-22.669,7.011-22.669,19.229
		c0,6.31,3.01,8.113,7.021,8.113c5.116,0,8.225-2.805,8.225-5.709c0-5.508,3.511-7.512,7.523-7.512c5.618,0,7.623,3.906,7.623,7.111
		c0,12.72-31.596,21.733-31.596,37.457v9.715c0,2.905,4.011,4.807,6.821,4.807h35.709c2.508,0,4.715-3.305,4.715-6.91
		c0-3.606-2.207-6.711-4.715-6.711h-26.28v-0.902C110.592,321.771,141.587,314.66,141.587,292.926z"/>
	<path style="fill:#423F40;" d="M146.603,324.174v1.202c0,14.923,10.833,20.631,24.675,20.631s24.575-5.709,24.575-20.631v-1.202
		c0-10.316-4.915-16.325-12.337-18.828c5.918-2.003,9.931-7.011,9.931-15.324c0-12.52-9.228-17.828-22.167-17.828
		c-12.939,0-22.168,5.308-22.168,17.828c0,8.313,4.013,13.321,9.931,15.324C151.619,307.849,146.603,313.858,146.603,324.174z
		 M171.278,284.714c4.513,0,7.121,2.203,7.121,7.31c0,5.208-2.608,7.211-7.121,7.211c-4.515,0-7.121-2.002-7.121-7.211
		C164.157,286.917,166.765,284.714,171.278,284.714z M162.251,321.27c0-6.51,3.41-9.514,9.028-9.514
		c5.616,0,8.928,3.004,8.928,9.514v2.203c0,6.711-3.21,10.016-8.928,10.016c-5.517,0-9.028-3.105-9.028-10.016V321.27z"/>
</g>
<g>
</g>
<g>
</g>
<g>
</g>
<g>
</g>
<g>
</g>
<g>
</g>
<g>
</g>
<g>
</g>
<g>
</g>
<g>
</g>
<g>
</g>
<g>
</g>
<g>
</g>
<g>
</g>
<g>
</g>
</svg>
