<?xml version="1.0" encoding="iso-8859-1"?>
<!-- Uploaded to: SVG Repo, www.svgrepo.com, Generator: SVG Repo Mixer Tools -->
<svg height="800px" width="800px" version="1.1" id="Layer_1" xmlns="http://www.w3.org/2000/svg" xmlns:xlink="http://www.w3.org/1999/xlink" 
	 viewBox="0 0 392.549 392.549" xml:space="preserve">
<path style="fill:#56ACE0;" d="M192.59,275.265c-35.103,7.046-70.335-4.073-94.513-28.638
	c-26.117-26.117-36.655-64.776-27.281-100.655c1.034-3.814,3.943-6.723,7.628-7.822c3.814-1.034,7.822,0.065,10.602,2.78
	l45.446,45.446c15.838,15.515,37.172,13.899,51.846,0c14.287-14.287,14.287-37.56,0-51.846l-45.446-45.446
	c-2.78-2.78-3.879-6.788-2.78-10.602c1.034-3.814,4.008-6.723,7.822-7.628c8.663-2.263,17.648-3.426,26.57-3.426
	c28.057,0,54.303,10.925,74.085,30.707c24.63,24.63,35.362,60.38,28.638,94.513l13.705,13.705c0.646-2.069,1.228-4.073,1.745-6.206
	c1.164-4.913,5.56-8.404,10.602-8.404h21.657v-38.465H301.26c-5.107,0-9.438-3.491-10.602-8.404
	c-3.038-12.929-8.145-25.212-15.063-36.396c-2.715-4.331-2.004-9.891,1.552-13.446l15.321-15.321l-27.216-27.216l-15.321,15.321
	c-3.556,3.556-9.18,4.267-13.446,1.552c-11.313-7.111-23.467-12.154-36.396-15.127c-4.913-1.164-8.404-5.56-8.404-10.602V21.98
	H153.22v21.657c0,5.107-3.491,9.503-8.404,10.602c-12.929,3.038-25.212,8.145-36.396,15.063c-4.331,2.715-9.891,2.004-13.446-1.552
	L79.588,52.428L52.372,79.644l15.321,15.321c3.556,3.556,4.267,9.18,1.552,13.446c-6.982,11.184-12.024,23.467-15.063,36.396
	c-1.164,4.913-5.56,8.404-10.602,8.404H21.923v38.529H43.58c5.107,0,9.503,3.491,10.602,8.404
	c3.038,12.929,8.145,25.212,15.063,36.396c2.715,4.331,2.004,9.891-1.552,13.446l-15.321,15.321l27.216,27.216l15.321-15.321
	c3.556-3.556,9.115-4.267,13.446-1.552c11.184,6.982,23.467,12.024,36.396,15.063c4.913,1.164,8.404,5.56,8.404,10.602v21.657
	h38.465v-21.657c0-5.107,3.491-9.503,8.404-10.602c2.069-0.453,4.073-1.164,6.206-1.745L192.59,275.265z"/>
<path style="fill:#FFC10D;" d="M360.024,308.105L255.62,203.701c-2.715-2.715-3.814-6.723-2.844-10.408
	c7.434-28.509-0.84-59.022-21.527-79.774c-15.774-15.774-36.848-24.372-59.281-24.242l29.802,29.802
	c22.82,22.82,22.82,59.863,0,82.683c-22.497,22.109-57.794,23.273-82.683,0L89.285,171.96c-0.065,21.915,8.469,43.442,24.242,59.216
	c25.406,26.57,63.16,26.958,79.838,21.527c0.905-0.259,5.883-1.487,10.408,2.844l49.778,49.778l24.501-24.501
	c4.267-4.267,11.119-4.267,15.386,0c4.267,4.267,4.267,11.119,0,15.386l-24.501,24.566l14.869,14.869l8.404-8.404
	c4.267-4.267,11.119-4.267,15.386,0c4.267,4.267,4.267,11.119,0,15.386l-8.404,8.404l8.857,8.857
	c14.352,14.739,37.495,13.834,51.846,0C374.311,345.665,374.311,322.392,360.024,308.105z"/>
<path style="fill:#194F82;" d="M375.41,292.655l-69.172-69.172c1.228-3.297,2.457-6.659,3.491-10.02h24.178
	c6.012,0,10.925-4.848,10.925-10.925v-60.25c0-6.012-4.848-10.925-10.925-10.925h-24.178c-2.78-9.374-6.594-18.36-11.184-26.958
	l17.067-17.067c4.267-4.267,4.267-11.119,0-15.386l-42.667-42.667c-4.267-4.267-11.119-4.267-15.386,0l-17.067,17.067
	c-8.598-4.655-17.648-8.404-26.958-11.184V10.925C213.535,4.913,208.687,0,202.61,0h-60.38c-6.012,0-10.925,4.848-10.925,10.925
	v24.178c-9.374,2.78-18.36,6.594-26.958,11.184L87.281,29.22c-4.267-4.267-11.119-4.267-15.386,0L29.163,71.822
	c-4.267,4.267-4.267,11.119,0,15.386l17.131,17.131c-4.655,8.533-8.404,17.584-11.184,26.958H10.998
	c-6.012,0-10.925,4.848-10.925,10.925v60.251c0,6.012,4.848,10.925,10.925,10.925h24.178c2.78,9.374,6.594,18.36,11.184,26.958
	l-17.067,17.067c-4.267,4.267-4.267,11.119,0,15.386l42.602,42.796c4.073,4.073,11.378,4.073,15.386,0l17.067-17.067
	c8.598,4.655,17.648,8.404,26.958,11.184v24.113c0,6.012,4.848,10.925,10.925,10.925h60.38c6.012,0,10.925-4.848,10.925-10.925
	v-24.178c3.426-1.034,6.788-2.133,10.02-3.491l69.172,69.172c24.63,24.63,61.414,21.204,82.683,0
	C398.165,352.517,398.165,315.41,375.41,292.655z M308.113,359.952l-8.857-8.857l8.404-8.404c4.267-4.267,4.267-11.119,0-15.386
	c-4.267-4.267-11.119-4.267-15.386,0l-8.404,8.404l-14.933-14.933l24.501-24.501c4.267-4.267,4.267-11.119,0-15.386
	c-4.267-4.267-11.119-4.267-15.386,0l-24.501,24.501l-49.778-49.778c-4.655-4.331-9.503-3.103-10.408-2.844
	c-16.614,5.43-54.368,5.042-79.838-21.527c-15.774-15.774-24.372-37.236-24.242-59.216l29.802,29.802
	c24.889,23.273,60.186,22.109,82.683,0c22.82-22.82,22.82-59.863,0-82.683l-29.802-29.802c22.432,0,43.442,8.469,59.281,24.242
	c20.687,20.687,28.962,51.329,21.527,79.774c-1.034,3.685,0.065,7.758,2.844,10.408L360.024,308.17
	c14.287,14.287,14.287,37.56,0,51.846C345.543,373.786,322.464,374.691,308.113,359.952z M191.685,301.253v21.657H153.22v-21.657
	c0-5.107-3.491-9.503-8.404-10.602c-12.929-3.038-25.212-8.145-36.396-15.063c-4.331-2.715-9.891-2.004-13.446,1.552l-15.386,15.321
	l-27.216-27.216l15.321-15.321c3.556-3.556,4.267-9.18,1.552-13.446c-6.982-11.184-12.024-23.467-15.063-36.396
	c-1.164-4.913-5.56-8.404-10.602-8.404H21.923v-38.465H43.58c5.107,0,9.503-3.491,10.602-8.404
	c3.038-12.929,8.145-25.212,15.063-36.396c2.715-4.331,2.004-9.891-1.552-13.446L52.372,79.644l27.216-27.345L94.909,67.62
	c3.556,3.556,9.18,4.267,13.446,1.552c11.313-7.046,23.467-12.024,36.396-15.063c4.913-1.164,8.404-5.56,8.404-10.602V21.851h38.465
	v21.657c0,5.107,3.491,9.503,8.404,10.602c12.929,3.038,25.212,8.145,36.396,15.063c4.331,2.715,9.891,2.004,13.446-1.552
	l15.321-15.321l27.216,27.216l-15.321,15.321c-3.556,3.556-4.267,9.18-1.552,13.446c6.982,11.184,12.024,23.467,15.063,36.396
	c1.164,4.913,5.56,8.404,10.602,8.404h21.657v38.529h-21.657c-5.107,0-9.438,3.491-10.602,8.404
	c-0.453,2.069-1.164,4.202-1.745,6.206l-13.705-13.64c6.659-34.133-4.008-69.883-28.638-94.513
	c-19.782-19.782-46.158-30.707-74.085-30.707c-8.986,0-17.907,1.164-26.57,3.426c-3.814,1.034-6.723,3.943-7.822,7.628
	c-1.034,3.814,0.065,7.822,2.78,10.602l45.446,45.446c14.287,14.287,14.287,37.56,0,51.846c-14.675,13.899-36.008,15.515-51.846,0
	l-45.446-45.446c-2.78-2.78-6.788-3.879-10.602-2.78c-3.814,1.034-6.723,4.008-7.628,7.822c-9.18,35.943,1.228,74.473,27.41,100.59
	c24.178,24.63,59.41,35.749,94.513,28.638l13.705,13.705c-2.069,0.646-4.073,1.228-6.206,1.745
	C195.176,291.879,191.685,296.21,191.685,301.253z"/>
</svg>