<?xml version="1.0" encoding="iso-8859-1"?>
<!-- Uploaded to: SVG Repo, www.svgrepo.com, Generator: SVG Repo Mixer Tools -->
<svg height="800px" width="800px" version="1.1" id="Layer_1" xmlns="http://www.w3.org/2000/svg" xmlns:xlink="http://www.w3.org/1999/xlink" 
	 viewBox="0 0 512 512" xml:space="preserve">
<path style="fill:#FF7D46;" d="M439.975,244.827h-95.802c8.658,14.13,10.506,31.14,5.544,46.499
	c-3.544,10.968-5.544,22.377-5.544,33.904v155.287c0,10.925,8.856,19.781,19.781,19.781h56.239c10.925,0,19.781-8.856,19.781-19.781
	V325.23c0-11.527-1.999-22.935-5.544-33.904C429.469,275.967,431.317,258.957,439.975,244.827z"/>
<polygon style="fill:#EFEFEF;" points="362.801,10.645 362.801,61.739 370.785,83.028 370.785,244.827 413.363,244.827 
	413.363,83.028 421.347,61.739 421.347,10.645 "/>
<path style="fill:#5A6B96;" d="M248.871,38.813L221.05,10.992v117.091h-85.157V10.992l-27.821,27.821
	c-23.081,23.081-36.047,54.385-36.047,87.025v18.946c0,23.585,11.4,45.716,30.603,59.408l0,0
	c19.203,13.692,30.603,35.824,30.603,59.408v222.856c0,8.228,6.671,14.899,14.899,14.899h60.682c8.228,0,14.899-6.671,14.899-14.899
	V263.6c0-23.585,11.4-45.716,30.603-59.408l0,0c19.203-13.692,30.603-35.824,30.603-59.408v-18.946
	C284.918,93.197,271.952,61.893,248.871,38.813z"/>
<g>
	<path style="fill:#231F20;" d="M444.561,288.053c-4.079-12.622-2.442-26.351,4.49-37.664c2.013-3.285,2.094-7.402,0.212-10.763
		c-1.883-3.362-5.434-5.444-9.287-5.444h-15.967V84.958l7.305-19.482c0.448-1.195,0.678-2.461,0.678-3.737V10.645
		C431.992,4.766,427.226,0,421.347,0h-58.546c-5.879,0-10.645,4.766-10.645,10.645v51.094c0,1.276,0.23,2.543,0.678,3.737
		l7.305,19.482v149.224h-15.967c-3.853,0-7.405,2.082-9.287,5.444c-1.883,3.362-1.801,7.478,0.212,10.763
		c6.933,11.312,8.57,25.04,4.491,37.664c-4.02,12.443-6.059,24.951-6.059,37.177v155.286c0,16.777,13.649,30.426,30.426,30.426
		h56.239c16.777,0,30.426-13.649,30.426-30.426V325.23C450.62,313.004,448.581,300.495,444.561,288.053z M380.752,79.291
		l-7.305-19.482v-38.52h37.256v38.52l-7.305,19.482c-0.448,1.195-0.678,2.461-0.678,3.737v151.154H381.43V83.028
		C381.43,81.752,381.2,80.485,380.752,79.291z M429.33,480.517c0,5.038-4.098,9.136-9.136,9.136h-56.239
		c-5.038,0-9.136-4.099-9.136-9.136V325.23c0-10.001,1.691-20.306,5.029-30.631c4.147-12.836,4.273-26.451,0.579-39.128h63.298
		c-3.694,12.678-3.569,26.29,0.579,39.128c3.336,10.324,5.027,20.63,5.027,30.631v155.287H429.33z"/>
	<path style="fill:#231F20;" d="M392.074,310.509c-5.879,0-10.645,4.766-10.645,10.645v2.09c0,5.879,4.766,10.645,10.645,10.645
		s10.645-4.766,10.645-10.645v-2.09C402.719,315.274,397.953,310.509,392.074,310.509z"/>
	<path style="fill:#231F20;" d="M392.074,351.716c-5.879,0-10.645,4.766-10.645,10.645v90.835c0,5.879,4.766,10.645,10.645,10.645
		s10.645-4.766,10.645-10.645v-90.835C402.719,356.482,397.953,351.716,392.074,351.716z"/>
	<path style="fill:#231F20;" d="M228.578,3.465c-3.045-3.044-7.624-3.956-11.601-2.307c-3.978,1.648-6.571,5.529-6.571,9.835
		v106.446h-63.868V10.993c0-4.305-2.594-8.187-6.571-9.835c-3.978-1.648-8.556-0.737-11.601,2.307l-27.821,27.821
		C75.29,56.541,61.38,90.121,61.38,125.838v18.946c0,26.969,13.109,52.417,35.068,68.075c16.367,11.671,26.139,30.64,26.139,50.741
		v222.856c0,14.085,11.459,25.544,25.544,25.544h60.682c14.085,0,25.544-11.459,25.544-25.544V263.6
		c0-20.101,9.772-39.07,26.139-50.741c21.959-15.657,35.068-41.105,35.068-68.075v-18.946c0-35.717-13.909-69.297-39.165-94.552
		L228.578,3.465z M274.273,125.838v18.946c0,20.101-9.772,39.07-26.139,50.741c-21.959,15.657-35.068,41.105-35.068,68.075v222.856
		c0,2.346-1.909,4.255-4.255,4.255h-60.681c-2.346,0-4.255-1.909-4.255-4.255V263.6c0-26.969-13.109-52.417-35.068-68.075
		c-16.367-11.671-26.139-30.64-26.139-50.741v-18.946c0-30.031,11.694-58.263,32.93-79.498l9.648-9.649v91.392
		c0,5.879,4.766,10.645,10.645,10.645h85.157c5.879,0,10.645-4.766,10.645-10.645V36.691l9.648,9.649l0,0
		C262.579,67.574,274.273,95.807,274.273,125.838z"/>
	<path style="fill:#231F20;" d="M205.083,177.943H151.86c-5.879,0-10.645,4.766-10.645,10.645c0,5.879,4.766,10.645,10.645,10.645
		h53.223c5.879,0,10.645-4.766,10.645-10.645C215.728,182.709,210.962,177.943,205.083,177.943z"/>
</g>
</svg>